<?xml version="1.0" encoding="UTF-8"?>
<svg width="63px" height="34px" viewBox="0 0 63 34" version="1.1" xmlns="http://www.w3.org/2000/svg" xmlns:xlink="http://www.w3.org/1999/xlink">
    <!-- Generator: sketchtool 51.2 (57519) - http://www.bohemiancoding.com/sketch -->
    <title>4EB188C5-3E34-4218-8608-2E121C003AE9</title>
    <desc>Created with sketchtool.</desc>
    <defs></defs>
    <g id="Dashboard" stroke="none" stroke-width="1" fill="none" fill-rule="evenodd">
        <g id="Landing-Page-v2-(circle-logo)-" transform="translate(-46.000000, -31.000000)" fill="#1F1F1F">
            <g id="Group-8">
                <path d="M56.0623928,38 L52.7679757,53.7200538 C52.5554327,54.5275908 52.2366181,55.2543742 51.8380999,55.8734859 C51.4395817,56.4118439 50.9879277,56.923284 50.3768665,57.3270525 C49.7392374,57.7846568 48.9687689,58 48.0388931,58 C47.1090173,58 46.4182524,57.7846568 45.9400305,57.3270525 C45.4883766,56.923284 45.2492657,56.4118439 45.1429941,55.8734859 C44.957019,55.2543742 44.957019,54.5545087 45.1164263,53.7200538 L48.4108434,38 L51.2801744,38 L47.9857573,53.7200538 C47.8529179,54.2314939 47.9060537,54.6621803 48.1185967,54.9582773 C48.2248682,55.0928668 48.3842755,55.1736205 48.6233864,55.1736205 C49.1281761,55.1736205 49.4469907,54.8506057 49.6329659,54.4468371 C49.7126695,54.2853297 49.818941,54.0430686 49.8986447,53.7200538 L53.1930618,38 L56.0623928,38 Z M57.4228045,57.7846568 L61.5673938,38 L64.0913424,38 C65.7916867,38 67.0403771,38.3230148 67.7577098,39.1574697 C68.4750426,39.9919246 68.6344499,41.2839838 68.2093638,43.2489906 C68.0233886,44.1911171 67.7842777,44.8909825 67.3591916,45.5370121 C66.9341055,46.1830417 66.4027479,46.7213997 65.5791437,47.3405114 C66.827834,48.1211306 66.9872413,50.2476447 66.5621552,52.1857335 C66.2433407,53.6931359 65.7119831,54.9582773 64.835243,56.0080754 C63.9053672,57.0578735 62.6566769,57.7039031 60.9563325,57.7846568 L57.4228045,57.7846568 Z M62.7098126,46.1561238 C62.9489235,46.1561238 63.506849,46.1830417 64.0647745,45.8600269 C64.5961321,45.5370121 65.1009218,44.8909825 65.3931685,43.5181696 C65.5260079,42.8452221 65.5525758,42.3068641 65.4728721,41.9569314 C65.286897,41.230148 64.8618109,40.9340511 64.3835891,40.9071332 C64.1444781,40.8802153 63.958503,40.8802153 63.8256636,40.8802153 L62.7098126,46.1561238 Z M60.8766289,54.9044415 C61.1157398,54.9044415 61.6736653,54.9582773 62.2315908,54.6083445 C62.7629484,54.2584118 63.3208739,53.4777927 63.6396884,51.8627187 C63.8256636,51.0551817 63.8787993,50.43607 63.7990957,50.0053836 C63.6396884,49.1709287 63.2146023,48.8479139 62.7098126,48.820996 L62.1518871,48.820996 L60.8766289,54.9044415 Z M75.6272521,57.7846568 L75.866363,49.4401077 L75.0958945,49.4401077 L73.3689823,57.7846568 L70.4996513,57.7846568 L74.6442406,38 L77.5135716,38 C80.9408281,38 81.9769754,39.9380888 81.2065069,43.7065949 C80.7814208,45.6716016 79.9046808,47.448183 78.6559904,48.2018843 L78.4965831,57.7846568 L75.6272521,57.7846568 Z M75.6803879,46.7483176 C76.0789061,46.7483176 76.6102637,46.7213997 77.1150534,46.3176312 C77.6198431,45.9138627 78.1246328,45.2139973 78.4168795,43.8142665 C78.7091262,42.4145357 78.523151,41.6877524 78.1777686,41.2839838 C77.8323861,40.8802153 77.3010286,40.8802153 76.9025104,40.8802153 L75.6803879,46.7483176 Z M87.6413837,38 L94.20365,38 L93.5660209,40.9878869 L89.8730856,40.9878869 L88.7838025,46.1830417 L91.4405905,46.1830417 L90.7763935,49.359354 L88.1196055,49.359354 L86.9771867,54.7967699 L90.670122,54.7967699 L90.0590608,57.7846568 L83.4967944,57.7846568 L87.6413837,38 Z M98.9116146,57.7846568 L96.6799127,57.7846568 L98.1942819,38 L100.85107,38 L99.8414904,48.282638 L99.7352189,48.9286676 L99.9477619,48.9286676 L100.186873,48.282638 L103.560994,38 L105.633288,38 L104.703412,48.282638 L104.623709,48.9286676 L104.836252,48.9286676 L105.048795,48.282638 L108.343212,38 L111,38 L104.225191,57.7846568 L101.993489,57.7846568 L102.60455,48.4172275 L102.710821,47.2597577 L102.60455,47.2597577 L102.179464,48.4172275 L98.9116146,57.7846568 Z" id="UBREW" transform="translate(78.000000, 48.000000) rotate(-12.000000) translate(-78.000000, -48.000000) "></path>
            </g>
        </g>
    </g>
</svg>